<?xml version="1.0"?>
<svg xmlns="http://www.w3.org/2000/svg" xmlns:xlink="http://www.w3.org/1999/xlink" xmlns:svgjs="http://svgjs.com/svgjs" version="1.1" width="512" height="512" x="0" y="0" viewBox="0 0 512 512" style="enable-background:new 0 0 512 512" xml:space="preserve"><g><g xmlns="http://www.w3.org/2000/svg" id="Outline"><path d="m392 16h-272a104.118 104.118 0 0 0 -104 104v272a104.118 104.118 0 0 0 104 104h272a104.118 104.118 0 0 0 104-104v-272a104.118 104.118 0 0 0 -104-104zm88 376a88.1 88.1 0 0 1 -88 88h-272a88.1 88.1 0 0 1 -88-88v-272a88.1 88.1 0 0 1 88-88h272a88.1 88.1 0 0 1 88 88z" fill="#3131f5" data-original="#000000" style=""/><path d="m354.8 162.552-39.351 3.448 1.395 15.939 56.356-4.939a8 8 0 0 0 7.273-8.667l-4.931-56.353-15.939 1.4 3 34.251a152.025 152.025 0 0 0 -226.923 15.476l12.658 9.786a136 136 0 0 1 206.462-10.341z" fill="#3131f5" data-original="#000000" style=""/><path d="m120 256a135.607 135.607 0 0 1 5.758-39.275l23.079 32.96 13.106-9.177-32.443-46.338a8 8 0 0 0 -11.143-1.965l-46.34 32.446 9.177 13.107 27.452-19.222a152.18 152.18 0 0 0 130.475 188.537l1.758-15.9a135.751 135.751 0 0 1 -120.879-135.173z" fill="#3131f5" data-original="#000000" style=""/><path d="m381.336 203.114a136.084 136.084 0 0 1 -93.45 185.122l16.768-35.961-14.5-6.761-23.88 51.208-.043.093a8 8 0 0 0 3.885 10.6l51.269 23.906 6.761-14.5-31.016-14.465a152.126 152.126 0 0 0 98.944-205.47z" fill="#3131f5" data-original="#000000" style=""/></g></g></svg>
