<?xml version="1.0"?>
<svg xmlns="http://www.w3.org/2000/svg" xmlns:xlink="http://www.w3.org/1999/xlink" xmlns:svgjs="http://svgjs.com/svgjs" version="1.1" width="512" height="512" x="0" y="0" viewBox="0 0 361.81333 361.81333" style="enable-background:new 0 0 512 512" xml:space="preserve"><g><path xmlns="http://www.w3.org/2000/svg" d="m98.988281 163.839844c0 1.886718-1.53125 3.414062-3.414062 3.414062-1.886719 0-3.414063-1.527344-3.414063-3.414062 0-1.886719 1.527344-3.414063 3.414063-3.414063 1.882812 0 3.414062 1.527344 3.414062 3.414063zm0 0" fill="#3131f5" data-original="#000000" style=""/><path xmlns="http://www.w3.org/2000/svg" d="m71.679688 170.667969c0 1.882812-1.527344 3.410156-3.414063 3.410156-1.882813 0-3.414063-1.527344-3.414063-3.410156 0-1.886719 1.53125-3.414063 3.414063-3.414063 1.886719 0 3.414063 1.527344 3.414063 3.414063zm0 0" fill="#3131f5" data-original="#000000" style=""/><path xmlns="http://www.w3.org/2000/svg" d="m98.988281 184.320312c0 1.886719-1.53125 3.414063-3.414062 3.414063-1.886719 0-3.414063-1.527344-3.414063-3.414063 0-1.886718 1.527344-3.414062 3.414063-3.414062 1.882812 0 3.414062 1.527344 3.414062 3.414062zm0 0" fill="#3131f5" data-original="#000000" style=""/><path xmlns="http://www.w3.org/2000/svg" d="m85.332031 177.492188c0 1.886718-1.527343 3.414062-3.410156 3.414062-1.886719 0-3.414063-1.527344-3.414063-3.414062 0-1.882813 1.527344-3.414063 3.414063-3.414063 1.882813 0 3.410156 1.53125 3.410156 3.414063zm0 0" fill="#3131f5" data-original="#000000" style=""/><path xmlns="http://www.w3.org/2000/svg" d="m71.679688 191.148438c0 1.882812-1.527344 3.410156-3.414063 3.410156-1.882813 0-3.414063-1.527344-3.414063-3.410156 0-1.886719 1.53125-3.414063 3.414063-3.414063 1.886719 0 3.414063 1.527344 3.414063 3.414063zm0 0" fill="#3131f5" data-original="#000000" style=""/><path xmlns="http://www.w3.org/2000/svg" d="m269.652344 163.839844c0 1.886718-1.527344 3.414062-3.414063 3.414062-1.882812 0-3.410156-1.527344-3.410156-3.414062 0-1.886719 1.527344-3.414063 3.410156-3.414063 1.886719 0 3.414063 1.527344 3.414063 3.414063zm0 0" fill="#3131f5" data-original="#000000" style=""/><path xmlns="http://www.w3.org/2000/svg" d="m296.960938 170.667969c0 1.882812-1.527344 3.410156-3.414063 3.410156s-3.414063-1.527344-3.414063-3.410156c0-1.886719 1.527344-3.414063 3.414063-3.414063s3.414063 1.527344 3.414063 3.414063zm0 0" fill="#3131f5" data-original="#000000" style=""/><path xmlns="http://www.w3.org/2000/svg" d="m269.652344 184.320312c0 1.886719-1.527344 3.414063-3.414063 3.414063-1.882812 0-3.410156-1.527344-3.410156-3.414063 0-1.886718 1.527344-3.414062 3.410156-3.414062 1.886719 0 3.414063 1.527344 3.414063 3.414062zm0 0" fill="#3131f5" data-original="#000000" style=""/><path xmlns="http://www.w3.org/2000/svg" d="m283.308594 177.492188c0 1.886718-1.53125 3.414062-3.414063 3.414062-1.886719 0-3.414062-1.527344-3.414062-3.414062 0-1.882813 1.527343-3.414063 3.414062-3.414063 1.882813 0 3.414063 1.53125 3.414063 3.414063zm0 0" fill="#3131f5" data-original="#000000" style=""/><path xmlns="http://www.w3.org/2000/svg" d="m296.960938 191.148438c0 1.882812-1.527344 3.410156-3.414063 3.410156s-3.414063-1.527344-3.414063-3.410156c0-1.886719 1.527344-3.414063 3.414063-3.414063s3.414063 1.527344 3.414063 3.414063zm0 0" fill="#3131f5" data-original="#000000" style=""/><path xmlns="http://www.w3.org/2000/svg" d="m325.753906 288.984375c23.523438-31.421875 36.058594-68.609375 36.058594-108.078125 0-39.679688-12.621094-77.347656-36.496094-108.945312-34.550781-45.730469-87.1875-71.960938-144.410156-71.960938-58.347656 0-113.445312 28.433594-147.378906 76.0625-.003906.003906-.007813.007812-.011719.011719-21.925781 30.769531-33.515625 67.023437-33.515625 104.832031 0 37.777344 11.5625 73.664062 33.261719 104.289062.101562.175782.136719.375.253906.542969.457031.640625.957031 1.234375 1.421875 1.867188.539062.738281 1.007812 1.515625 1.5625 2.246093.105469.140626.269531.191407.382812.320313 34.140626 44.925781 87.527344 71.640625 144.023438 71.640625 55.460938 0 106.5625-24.695312 141.117188-67.847656.046874-.058594.125-.078125.171874-.136719.25-.3125.457032-.644531.703126-.960937.800781-1.011719 1.636718-1.980469 2.417968-3.015626.203125-.265624.28125-.582031.4375-.867187zm-144.847656-275.332031c50.925781 0 97.925781 22.472656 129.863281 61.871094l-10.835937 10.835937c-28.789063-36.191406-72.707032-57.574219-119.027344-57.574219-48.28125 0-93.285156 22.8125-121.992188 61.4375l-10.855468-10.859375c31.589844-41.25 80.820312-65.710937 132.847656-65.710937zm27.691406 215.125c-6.730468 9.214844-16.820312 14.503906-27.691406 14.503906s-20.960938-5.289062-27.691406-14.503906l-19.117188-26.1875c-5.214844-7.144532-8.085937-16.078125-8.085937-25.160156v-9.65625c0-8.496094 1.238281-16.90625 3.683593-25.054688 15.160157-3.175781 31.378907-4.78125 48.269532-4.78125 18.84375 0 37.152344 1.984375 54.476562 5.902344 2.230469 7.808594 3.359375 15.84375 3.359375 23.933594v9.65625c0 9.082031-2.871093 18.015624-8.082031 25.15625zm-18.953125 27.226562-6.457031 32.257813c-.433594 2.167969-4.128906 2.167969-4.5625 0l-6.457031-32.257813c2.871093.558594 5.785156.929688 8.738281.929688s5.867188-.371094 8.738281-.929688zm-12.152343-133.125c-73.332032 0-114.902344 22.582032-129.371094 32.292969-.546875.363281-1.273438.382813-1.910156.039063-.734376-.398438-1.160157-1.207032-1.019532-1.925782 3.492188-17.25 10.332032-33.644531 20.332032-48.71875 25.789062-38.902344 68.921874-62.125 115.382812-62.125 44.59375 0 86.738281 21.777344 112.742188 58.261719 10.375 14.554687 17.71875 30.511719 21.820312 47.417969.289062 1.171875-.023438 2.507812-.820312 3.574218-1.3125 1.734376-3.648438 2.222657-5.566407 1.171876-16.339843-9.015626-61.871093-29.988282-131.589843-29.988282zm-137.3125-32.085937 11.066406 11.070312c-9.328125 15.222657-15.960938 31.542969-19.433594 48.714844-1.328125 6.550781 1.917969 13.390625 7.875 16.628906 2.351562 1.277344 4.921875 1.910157 7.472656 1.910157 3.003906 0 5.984375-.875 8.570313-2.609376 6.910156-4.636718 26.640625-16.164062 59.730469-23.5-2.054688 8.097657-3.101563 16.394532-3.101563 24.765626v9.65625c0 11.953124 3.804687 23.746093 10.710937 33.207031l19.117188 26.191406c4.074219 5.578125 9.222656 10.089844 14.957031 13.460937.015625.074219-.011719.148438 0 .222657l8.09375 40.429687c1.492188 7.441406 8.082031 12.84375 15.667969 12.84375 7.589844 0 14.175781-5.402344 15.667969-12.84375l8.09375-40.429687c.015625-.074219-.015625-.148438 0-.222657 5.738281-3.375 10.882812-7.882812 14.957031-13.460937l19.117188-26.191406c6.910156-9.460938 10.710937-21.253907 10.710937-33.207031v-9.65625c0-7.921876-.957031-15.792969-2.804687-23.496094 27.742187 6.5 46.6875 15.496094 55.835937 20.546875 7.921875 4.359375 17.613281 2.304687 23.058594-4.90625 3.289062-4.359375 4.453125-9.835938 3.195312-15.023438-4.066406-16.742187-11.160156-32.558593-20.8125-47.21875l11-11c19.074219 27.828125 29.234375 60.199219 29.234375 94.230469 0 34.136719-10.089844 66.460938-29.195312 94.273438l-10.941406-10.941407c11.671874-17.757812 19.582031-37.773437 22.984374-58.515625.324219-1.984375-.238281-4.007812-1.539062-5.53125-1.296875-1.523437-3.195312-2.402344-5.195312-2.402344-.007813 0-.011719 0-.023438 0l-43.011719.136719c-11.535156.039063-22.554687 5.570313-29.472656 14.792969l-27.34375 36.453125c-3.632813 4.847656-6.15625 10.300781-7.507813 16.203125l-6.222656 27.195312c-3.195312 13.980469-15.445312 23.742188-29.785156 23.742188s-26.589844-9.761719-29.785156-23.742188l-6.222656-27.195312c-1.347657-5.902344-3.875-11.355469-7.511719-16.203125l-27.339844-36.453125c-6.917969-9.222656-17.9375-14.753906-29.472656-14.792969l-43.011719-.136719c-.011719 0-.015625 0-.023438 0-2 0-3.902343.878907-5.199218 2.402344-1.300782 1.527344-1.863282 3.546875-1.539063 5.53125 3.148438 19.15625 10.128907 37.746094 20.28125 54.394532l-10.992187 10.992187c-17.316406-26.898437-26.4375-57.820313-26.4375-90.203125 0-32.230469 9.21875-63.179688 26.527344-90.113281zm25.761718 167.046875c-9.4375-14.097656-16.375-29.882813-20.113281-46.371094l34.699219.109375c7.28125.023437 14.230468 3.515625 18.597656 9.335937l27.335938 36.453126c2.480468 3.304687 4.207031 7.023437 5.132812 11.054687l6.21875 27.195313c1.738281 7.589843 5.316406 14.320312 10.207031 19.765624-33.164062-8.121093-62.515625-28.367187-82.078125-57.542968zm226.980469 4.222656c-19.449219 26.804688-47.660156 45.535156-79.109375 53.296875 4.882812-5.441406 8.457031-12.164063 10.1875-19.746094l6.222656-27.191406c.921875-4.03125 2.648438-7.75 5.125-11.058594l27.34375-36.453125c4.367188-5.820312 11.316406-9.308594 18.59375-9.332031l34.699219-.109375c-4.113281 18.097656-12.015625 35.375-23.0625 50.59375zm-112.015625 86.097656c-52.027344 0-101.257812-24.460937-132.847656-65.710937l10.855468-10.859375c28.703126 38.625 73.710938 61.4375 121.992188 61.4375 46.320312 0 90.238281-21.382813 119.027344-57.574219l10.835937 10.839844c-31.9375 39.394531-78.9375 61.867187-129.863281 61.867187zm0 0" fill="#3131f5" data-original="#000000" style=""/></g></svg>
